<svg width="48" height="48" viewBox="0 0 48 48" fill="none" xmlns="http://www.w3.org/2000/svg">
<path d="M23.6045 3C25.0811 3 26.3115 4.23047 26.3115 5.625V16.125C26.3115 17.6016 25.0811 18.75 23.6045 18.75C22.21 18.75 20.9795 17.6016 20.9795 16.125V12.0234L4.49121 28.5117C3.50684 29.5781 1.78418 29.5781 0.799805 28.5117C-0.266602 27.5273 -0.266602 25.8047 0.799805 24.8203L17.2881 8.25H13.1045C11.71 8.25 10.4795 7.10156 10.4795 5.625C10.4795 4.23047 11.71 3 13.1045 3H23.6045ZM47.3115 9.5625C47.3115 11.7773 45.5068 13.5 43.374 13.5C41.1592 13.5 39.4365 11.7773 39.4365 9.5625C39.4365 7.42969 41.1592 5.625 43.374 5.625C45.5068 5.625 47.3115 7.42969 47.3115 9.5625ZM36.8115 20.0625C36.8115 22.2773 35.0068 24 32.874 24C30.6592 24 28.9365 22.2773 28.9365 20.0625C28.9365 17.9297 30.6592 16.125 32.874 16.125C35.0068 16.125 36.8115 17.9297 36.8115 20.0625ZM28.9365 30.5625C28.9365 28.4297 30.6592 26.625 32.874 26.625C35.0068 26.625 36.8115 28.4297 36.8115 30.5625C36.8115 32.7773 35.0068 34.5 32.874 34.5C30.6592 34.5 28.9365 32.7773 28.9365 30.5625ZM36.8115 41.0625C36.8115 43.2773 35.0068 45 32.874 45C30.6592 45 28.9365 43.2773 28.9365 41.0625C28.9365 38.9297 30.6592 37.125 32.874 37.125C35.0068 37.125 36.8115 38.9297 36.8115 41.0625ZM47.3115 41.0625C47.3115 43.2773 45.5068 45 43.374 45C41.1592 45 39.4365 43.2773 39.4365 41.0625C39.4365 38.9297 41.1592 37.125 43.374 37.125C45.5068 37.125 47.3115 38.9297 47.3115 41.0625ZM18.3545 30.5625C18.3545 28.4297 20.1592 26.625 22.292 26.625C24.5068 26.625 26.3115 28.4297 26.3115 30.5625C26.3115 32.7773 24.5068 34.5 22.292 34.5C20.1592 34.5 18.3545 32.7773 18.3545 30.5625ZM26.3115 41.0625C26.3115 43.2773 24.5068 45 22.292 45C20.1592 45 18.3545 43.2773 18.3545 41.0625C18.3545 38.9297 20.1592 37.125 22.292 37.125C24.5068 37.125 26.3115 38.9297 26.3115 41.0625ZM7.85449 41.0625C7.85449 38.9297 9.65918 37.125 11.792 37.125C14.0068 37.125 15.7295 38.9297 15.7295 41.0625C15.7295 43.2773 14.0068 45 11.792 45C9.65918 45 7.85449 43.2773 7.85449 41.0625ZM47.3115 30.5625C47.3115 32.7773 45.5068 34.5 43.374 34.5C41.1592 34.5 39.4365 32.7773 39.4365 30.5625C39.4365 28.4297 41.1592 26.625 43.374 26.625C45.5068 26.625 47.3115 28.4297 47.3115 30.5625ZM39.4365 20.0625C39.4365 17.9297 41.1592 16.125 43.374 16.125C45.5068 16.125 47.3115 17.9297 47.3115 20.0625C47.3115 22.2773 45.5068 24 43.374 24C41.1592 24 39.4365 22.2773 39.4365 20.0625Z" fill="#4541FE"/>
</svg>
