<svg width="24" height="24" viewBox="0 0 24 24" fill="none" xmlns="http://www.w3.org/2000/svg">
<path d="M6 20.5V10C6 9.15625 5.29688 8.5 4.5 8.5H1.5C0.65625 8.5 0 9.20312 0 10V20.4531C0 21.25 0.65625 21.9062 1.5 21.9062H4.5C5.29688 22 6 21.3438 6 20.5ZM24 10.0469C24 8.78125 22.9688 7.79688 21.75 7.79688H14.8594C15.9375 6.01562 16.5 4 16.5 3.29688C16.5 2.17188 15.6094 1 14.1562 1C11.2031 1 12.9375 4.60938 9.09375 7.65625L8.34375 8.26562C7.78125 8.73438 7.5 9.34375 7.5 10V17.5C7.5 18.25 7.82812 18.9062 8.39062 19.3281L9.98438 20.5C11.2969 21.4844 12.8438 22 14.4844 22H17.25C18.4688 22 19.5 21.0156 19.5 19.7969C19.5 19.6094 19.4531 19.4219 19.4062 19.2812C20.3438 19 21 18.1562 21 17.125C21 16.7031 20.8594 16.3281 20.625 16C21.7031 15.7656 22.5 14.875 22.5 13.7969C22.5 13.1875 22.2656 12.6719 21.8906 12.25C23.0625 12.2031 24 11.2188 24 10.0469Z" fill="#D9C6FF"/>
</svg>
