<svg width="48" height="48" viewBox="0 0 48 48" fill="none" xmlns="http://www.w3.org/2000/svg">
<path d="M35.4508 28.5938C36.107 28.1836 36.8453 27.6094 37.4195 26.707C38.2398 25.2305 38.1578 23.7539 38.1578 22.8516C38.1578 22.7695 38.1578 22.7695 38.1578 22.6875C38.65 21.8672 39.4703 20.5547 39.4703 18.75C39.4703 17.0273 38.568 15.7148 38.0758 14.9766C38.0758 14.9766 38.0758 14.9766 38.0758 14.8945C38.0758 14.8945 38.0758 14.8945 38.0758 14.8125C38.0758 13.9102 38.1578 12.4336 37.3375 10.875C36.4352 9.39844 35.1227 8.74219 34.3023 8.33203C34.2203 8.33203 34.2203 8.25 34.2203 8.25C34.2203 8.25 34.2203 8.25 34.1383 8.16797C33.7281 7.34766 33.0719 6.03516 31.5953 5.13281C30.693 4.64062 29.7086 4.39453 28.4781 4.39453C28.232 4.39453 27.9039 4.39453 27.6578 4.39453H27.5758H27.4938C26.8375 3.90234 25.525 3 23.8023 3C21.9977 3 20.6852 3.90234 19.9469 4.39453C19.9469 4.39453 19.9469 4.39453 19.8648 4.39453C19.8648 4.39453 19.8648 4.39453 19.7828 4.39453C19.5367 4.39453 19.2086 4.39453 18.9625 4.39453C17.8141 4.39453 16.7477 4.64062 15.8453 5.13281C14.3688 6.03516 13.7125 7.34766 13.3023 8.16797C13.3023 8.25 13.2203 8.25 13.2203 8.25C13.2203 8.25 13.2203 8.33203 13.1383 8.33203C12.318 8.74219 11.0055 9.39844 10.1031 10.875C9.28282 12.4336 9.36485 13.9102 9.36485 14.8125C9.36485 14.8945 9.36485 14.8945 9.36485 14.8945C9.36485 14.9766 9.36485 14.9766 9.36485 14.9766C8.87266 15.7148 8.05235 17.0273 8.05235 18.75C8.05235 20.5547 8.87266 21.8672 9.36485 22.6055C9.36485 22.6055 9.36485 22.6055 9.36485 22.6875C9.36485 22.6875 9.36485 22.6875 9.36485 22.7695C9.36485 23.6719 9.28282 25.1484 10.1031 26.625C10.6773 27.6094 11.4156 28.2656 12.1539 28.6758L8.13438 38.6016C7.88829 39.2578 7.97032 39.9961 8.46251 40.5703C8.87266 40.9805 9.36485 41.3086 9.93907 41.3086C10.1031 41.3086 10.2672 41.2266 10.3492 41.2266L14.0406 40.4883L15.8453 43.9336C16.1734 44.5898 16.8297 45 17.568 45C17.65 45 17.65 45 17.65 45C18.4703 45 19.1266 44.5078 19.3727 43.8516L23.1461 34.5H24.4586L28.15 43.8516C28.3961 44.5078 29.0523 45 29.8727 45C29.8727 45 29.8727 45 29.9547 45C30.693 45 31.3492 44.6719 31.6773 43.9336L33.482 40.4883L37.1734 41.2266C37.2555 41.2266 37.4195 41.3086 37.5836 41.3086C38.1578 41.3086 38.65 40.9805 39.0602 40.5703C39.5523 39.9961 39.6344 39.2578 39.3883 38.6016L35.4508 28.5938ZM33.9742 24.6562C33.482 25.5586 32.1695 25.8047 31.4313 26.4609C30.775 27.1992 30.5289 28.5117 29.6266 29.0039C29.3805 29.168 28.9703 29.25 28.5602 29.25C28.15 29.25 27.7398 29.168 27.3297 29.168C27.0836 29.168 26.8375 29.25 26.5914 29.25C25.607 29.4961 24.7867 30.5625 23.8023 30.5625C22.7359 30.5625 21.9156 29.5781 20.9313 29.25C20.6852 29.25 20.4391 29.168 20.193 29.168C19.7828 29.168 19.3727 29.168 18.9625 29.168C18.5523 29.168 18.1422 29.168 17.8141 28.9219C16.9938 28.5117 16.7477 27.1992 16.0914 26.4609C15.3531 25.8047 14.0406 25.5586 13.5484 24.6562C13.0563 23.8359 13.5484 22.6055 13.3023 21.6211C12.9742 20.6367 11.9898 19.8164 11.9898 18.75C11.9898 17.7656 12.9742 16.9453 13.3023 15.9609C13.5484 14.9766 13.0563 13.7461 13.5484 12.8438C14.0406 12.0234 15.3531 11.7773 16.0914 11.1211C16.7477 10.3828 16.9938 9.07031 17.8961 8.57812C18.1422 8.41406 18.5523 8.33203 18.9625 8.33203C19.3727 8.33203 19.7828 8.41406 20.193 8.41406C20.4391 8.41406 20.6852 8.33203 20.9313 8.25C21.9156 8.00391 22.7359 6.9375 23.8023 6.9375C24.7867 6.9375 25.607 8.00391 26.5914 8.33203C26.8375 8.33203 27.0836 8.41406 27.3297 8.41406C27.7398 8.41406 28.15 8.33203 28.5602 8.33203C28.9703 8.33203 29.3805 8.41406 29.7086 8.57812C30.5289 9.07031 30.775 10.3828 31.4313 11.1211C32.1695 11.7773 33.482 12.0234 33.9742 12.8438C34.4664 13.7461 33.9742 14.9766 34.3023 15.9609C34.5484 16.9453 35.6148 17.7656 35.6148 18.75C35.6148 19.8164 34.5484 20.6367 34.2203 21.6211C33.9742 22.6055 34.4664 23.8359 33.9742 24.6562ZM23.8023 13.5C20.8492 13.5 18.5523 15.8789 18.5523 18.75C18.5523 21.7031 20.8492 24 23.8023 24C26.6734 24 29.0523 21.7031 29.0523 18.75C29.0523 15.8789 26.6734 13.5 23.8023 13.5Z" fill="#FE0F83"/>
</svg>
