<svg width="77" height="24" viewBox="0 0 77 24" fill="none" xmlns="http://www.w3.org/2000/svg">
<g clip-path="url(#clip0_1218_157782)">
<path d="M14.7611 2.16596C14.1346 0.237923 11.407 0.237924 10.7805 2.16596L9.18845 7.06589C9.07591 7.41225 8.75315 7.64675 8.38897 7.64675H3.23687C1.20962 7.64675 0.366725 10.2409 2.00681 11.4325L6.17494 14.4608C6.46957 14.6749 6.59286 15.0543 6.48032 15.4007L4.88823 20.3006C4.26178 22.2286 6.4685 23.8319 8.10858 22.6403L12.2767 19.612C12.5713 19.3979 12.9703 19.3979 13.2649 19.612L17.4331 22.6403C19.0731 23.8319 21.2799 22.2286 20.6534 20.3006L19.0613 15.4007C18.9488 15.0543 19.0721 14.6749 19.3667 14.4608L23.5348 11.4325C25.1749 10.2409 24.332 7.64675 22.3048 7.64675H17.1527C16.7885 7.64675 16.4657 7.41225 16.3532 7.06589L14.7611 2.16596Z" fill="#FFBD15" stroke="#101722" stroke-width="1.25208"/>
<path d="M27.6088 2.16596C26.9823 0.237923 24.2546 0.237924 23.6282 2.16596L22.0361 7.06589C21.9236 7.41225 21.6008 7.64675 21.2366 7.64675H16.0845C14.0573 7.64675 13.2144 10.2409 14.8545 11.4325L19.0226 14.4608C19.3172 14.6749 19.4405 15.0543 19.328 15.4007L17.7359 20.3006C17.1094 22.2286 19.3162 23.8319 20.9562 22.6403L25.1244 19.612C25.419 19.3979 25.818 19.3979 26.1126 19.612L30.2807 22.6403C31.9208 23.8319 34.1275 22.2286 33.5011 20.3006L31.909 15.4007C31.7964 15.0543 31.9197 14.6749 32.2144 14.4608L36.3825 11.4325C38.0226 10.2409 37.1797 7.64675 35.1524 7.64675H30.0003C29.6361 7.64675 29.3134 7.41225 29.2008 7.06589L27.6088 2.16596Z" fill="#FFBD15" stroke="#101722" stroke-width="1.25208"/>
<path d="M40.4564 2.16596C39.83 0.237923 37.1023 0.237924 36.4758 2.16596L34.8838 7.06589C34.7712 7.41225 34.4485 7.64675 34.0843 7.64675H28.9322C26.9049 7.64675 26.062 10.2409 27.7021 11.4325L31.8703 14.4608C32.1649 14.6749 32.2882 15.0543 32.1756 15.4007L30.5835 20.3006C29.9571 22.2286 32.1638 23.8319 33.8039 22.6403L37.972 19.612C38.2667 19.3979 38.6656 19.3979 38.9602 19.612L43.1284 22.6403C44.7685 23.8319 46.9752 22.2286 46.3487 20.3006L44.7566 15.4007C44.6441 15.0543 44.7674 14.6749 45.062 14.4608L49.2301 11.4325C50.8702 10.2409 50.0273 7.64675 48.0001 7.64675H42.848C42.4838 7.64675 42.161 7.41225 42.0485 7.06589L40.4564 2.16596Z" fill="#FFBD15" stroke="#101722" stroke-width="1.25208"/>
<path d="M53.3041 2.16596C52.6776 0.237923 49.95 0.237924 49.3235 2.16596L47.7314 7.06589C47.6189 7.41225 47.2961 7.64675 46.9319 7.64675H41.7798C39.7526 7.64675 38.9097 10.2409 40.5498 11.4325L44.7179 14.4608C45.0125 14.6749 45.1358 15.0543 45.0233 15.4007L43.4312 20.3006C42.8047 22.2286 45.0115 23.8319 46.6515 22.6403L50.8197 19.612C51.1143 19.3979 51.5133 19.3979 51.8079 19.612L55.976 22.6403C57.6161 23.8319 59.8228 22.2286 59.1964 20.3006L57.6043 15.4007C57.4918 15.0543 57.615 14.6749 57.9097 14.4608L62.0778 11.4325C63.7179 10.2409 62.875 7.64675 60.8477 7.64675H55.6956C55.3315 7.64675 55.0087 7.41225 54.8962 7.06589L53.3041 2.16596Z" fill="#FFBD15" stroke="#101722" stroke-width="1.25208"/>
<path d="M66.1517 2.16596C65.5253 0.237923 62.7976 0.237924 62.1712 2.16596L60.5791 7.06589C60.4665 7.41225 60.1438 7.64675 59.7796 7.64675H54.6275C52.6002 7.64675 51.7574 10.2409 53.3974 11.4325L57.5656 14.4608C57.8602 14.6749 57.9835 15.0543 57.8709 15.4007L56.2789 20.3006C55.6524 22.2286 57.8591 23.8319 59.4992 22.6403L63.6673 19.612C63.962 19.3979 64.3609 19.3979 64.6556 19.612L68.8237 22.6403C70.4638 23.8319 72.6705 22.2286 72.044 20.3006L70.4519 15.4007C70.3394 15.0543 70.4627 14.6749 70.7573 14.4608L74.9255 11.4325C76.5655 10.2409 75.7226 7.64675 73.6954 7.64675H68.5433C68.1791 7.64675 67.8563 7.41225 67.7438 7.06589L66.1517 2.16596Z" fill="#F9F0FF" stroke="#101722" stroke-width="1.25208"/>
<g clip-path="url(#clip1_1218_157782)">
<path d="M66.1517 2.16596C65.5253 0.237923 62.7976 0.237924 62.1712 2.16596L60.5791 7.06589C60.4665 7.41225 60.1438 7.64675 59.7796 7.64675H54.6275C52.6002 7.64675 51.7574 10.2409 53.3974 11.4325L57.5656 14.4608C57.8602 14.6749 57.9835 15.0543 57.8709 15.4007L56.2789 20.3006C55.6524 22.2286 57.8591 23.8319 59.4992 22.6403L63.6673 19.612C63.962 19.3979 64.3609 19.3979 64.6556 19.612L68.8237 22.6403C70.4638 23.8319 72.6705 22.2286 72.044 20.3006L70.4519 15.4007C70.3394 15.0543 70.4627 14.6749 70.7573 14.4608L74.9255 11.4325C76.5655 10.2409 75.7226 7.64675 73.6954 7.64675H68.5433C68.1791 7.64675 67.8563 7.41225 67.7438 7.06589L66.1517 2.16596Z" fill="#FFBD15" stroke="#101722" stroke-width="1.25208"/>
</g>
</g>
<defs>
<clipPath id="clip0_1218_157782">
<rect width="77" height="24" fill="white"/>
</clipPath>
<clipPath id="clip1_1218_157782">
<rect width="23" height="30" fill="white" transform="translate(49 -2)"/>
</clipPath>
</defs>
</svg>
