<svg fill="none" height="40" viewBox="0 0 40 40" width="40" xmlns="http://www.w3.org/2000/svg"><path d="m20.4882 10.1176 7.0494 3.1373c.825.3922 1.4624 1.2157 1.4624 2.2353-.0375 3.9216-1.5749 11.0196-8.0243 14.2745-.6374.3137-1.3499.3137-1.9873 0-6.4495-3.2549-7.9868-10.3529-7.9868-14.2745-.0375-1.0196.5999-1.8431 1.4248-2.2353l7.0494-3.1373c.15-.0784.3375-.1176.525-.1176.15 0 .3375.0392.4874.1176zm3.7497 8.0785h-.0375c.375-.353.375-.9412 0-1.3334-.3375-.3529-.8999-.3529-1.2374 0l-4.1621 4.3922-1.7624-1.8431c-.3749-.3922-.9374-.3922-1.2748 0-.375.3529-.375.9411 0 1.2941l2.3997 2.5098c.3375.3921.9.3921 1.2749 0z" fill="#fe0f83"/></svg>