<svg fill="none" height="40" viewBox="0 0 40 40" width="40" xmlns="http://www.w3.org/2000/svg"><path d="m26.3604 18.9736-.945.9443-8.1765 8.1701c-.4109.4516-.945.739-1.5203.9443l-4.9716 1.4369c-.3287.0821-.6985 0-.945-.2463-.28762-.2464-.36979-.6159-.24653-.9854l1.43803-4.9266c.1644-.5748.4931-1.1086.904-1.5602l8.1765-8.1701.945-.9032.4519-.4926 1.397 1.3958 2.5475 2.5455 1.397 1.3959zm-10.272 6.9384h-1.3148c-.3698 0-.6574-.2874-.6574-.6569v-1.3138l-.945.3696c-.1233.1642-.2465.3284-.2876.5337l-.945 3.2023 3.2048-.9443c.2055-.041.3698-.1231.5342-.2463zm8.2998-15.6422c1.0272-1.0264 2.7118-1.0264 3.739 0l1.6024 1.6422c1.0272 1.0264 1.0272 2.6686 0 3.695l-.5752.6159-.945.9032-.452.4516-1.397-1.3548-2.5474-2.5865-1.397-1.3549.4519-.4926.9451-.9033zm-1.9311 6.8974c.2465-.2464.2465-.6569 0-.9033-.2466-.2874-.6985-.2874-.9451 0l-5.9166 5.9121c-.2465.2463-.2465.6568 0 .9032.2465.2463.6985.2463.945 0z" fill="#fe0f83"/></svg>