<svg width="40" height="40" viewBox="0 0 40 40" fill="none" xmlns="http://www.w3.org/2000/svg">
<path d="M10 12.4984C10 11.1321 11.0938 9.99997 12.5 9.99997H27.5C28.8672 9.99997 30 11.1321 30 12.4984V23.7415C30 25.1469 28.8672 26.24 27.5 26.24H22.0703L17.2266 29.8706C17.0312 30.0268 16.7969 30.0268 16.5625 29.9487C16.3672 29.8316 16.25 29.6364 16.25 29.3631V26.24H12.5C11.0938 26.24 10 25.1469 10 23.7415V12.4984ZM17.5 16.8708C18.1641 16.8708 18.75 16.3242 18.75 15.6215C18.75 14.9579 18.1641 14.3723 17.5 14.3723C16.7969 14.3723 16.25 14.9579 16.25 15.6215C16.25 16.3242 16.7969 16.8708 17.5 16.8708ZM22.5 16.8708C23.1641 16.8708 23.75 16.3242 23.75 15.6215C23.75 14.9579 23.1641 14.3723 22.5 14.3723C21.7969 14.3723 21.25 14.9579 21.25 15.6215C21.25 16.3242 21.7969 16.8708 22.5 16.8708ZM15.8594 19.3302C15.4688 19.6425 15.4297 20.2671 15.7812 20.6185C16.7969 21.7896 18.3203 22.4923 19.9609 22.4923C21.6406 22.4923 23.125 21.7896 24.1797 20.6185C24.5312 20.2671 24.4922 19.6425 24.1016 19.3302C23.7109 18.9788 23.125 19.0179 22.7734 19.3692C22.0703 20.15 21.0938 20.6185 19.9609 20.6185C18.8672 20.6185 17.8516 20.15 17.1875 19.3692C16.8359 19.0179 16.25 18.9788 15.8594 19.3302Z" fill="#8F9AAB"/>
</svg>
