<?xml version="1.0" encoding="utf-8"?>
<!-- Generator: Adobe Illustrator 26.5.0, SVG Export Plug-In . SVG Version: 6.00 Build 0)  -->
<svg version="1.1" id="Layer_1" xmlns="http://www.w3.org/2000/svg" xmlns:xlink="http://www.w3.org/1999/xlink" x="0px" y="0px"
	 viewBox="0 0 1084.5 103.5" style="enable-background:new 0 0 1084.5 103.5;" xml:space="preserve">
<style type="text/css">
	.st0{fill:#485BFF;}
	.st1{enable-background:new    ;}
	.st2{fill:#15F5BA;}
</style>
<g>
	<g id="Group_12-2_00000149379762091839534680000003484499421537708433_" transform="translate(101.142 219.978)">
		<g id="Group_10-2_00000051368046990707358590000004695380959116880553_">
			<path id="Path_23-2_00000039129621766806188990000015891921660284386969_" class="st0" d="M-65.7-175.6l-2.8,15.7
				c-1.4,7.7-1.6,12.5-0.6,14.3c1,1.8,4.1,2.7,9.3,2.7c0.5,0,1,0,1.5,0c2.5-0.1,4.6-1.9,5-4.4l3.3-18.6c0.4-2.5,2.6-4.4,5.2-4.4
				h18.5c2.9,0,5.3,2.3,5.3,5.3c0,0.3,0,0.6-0.1,0.9l-7,39.8c-0.4,2.1-2,3.8-4.2,4.3c-10.9,2.4-22.1,3.6-33.3,3.5
				c-11.2,0-19.7-1.8-25.3-5.5c-5.6-3.7-8.9-9.3-9.9-17c-1-7.6-0.4-17.4,1.7-29.2c1.2-7.9,3.2-15.7,5.7-23.2c2-5.8,5.1-11.1,9-15.8
				c3.8-4.6,8.9-7.9,14.6-9.7c7.2-2.1,14.6-3.1,22.1-2.9c9.4,0,18.7,0.7,28,2.2c2.9,0.4,4.9,3.1,4.4,6c0,0,0,0,0,0
				c0,0.2-0.1,0.5-0.2,0.7l-4.5,15c-0.7,2.5-3.1,4-5.7,3.8c-8.5-0.9-14.7-1.4-18.7-1.4c-8.1,0-13.4,1-15.9,3.1
				C-62.4-188.4-64.3-183.5-65.7-175.6z"/>
			<path id="Path_24-2_00000000945601834976306750000004068901538773762227_" class="st0" d="M43.2-123l-0.7-8
				c-0.2-2.7-2.5-4.9-5.3-4.9H17c-2.1,0-4,1.2-4.8,3.2l-4.9,11.4c-0.8,1.9-2.7,3.2-4.8,3.2h-19.8c-2.9,0-5.3-2.4-5.3-5.3
				c0-0.8,0.2-1.6,0.5-2.3l42.6-89.1c0.9-1.8,2.7-3,4.8-3h32c2.6,0,4.9,2,5.2,4.6l12.1,89.1c0.4,2.9-1.6,5.5-4.5,5.9c0,0,0,0,0,0
				c-0.2,0-0.5,0-0.7,0H48.4C45.7-118.1,43.4-120.2,43.2-123z M30.3-175.8L25.6-165c-1.2,2.7,0,5.8,2.7,7c0.7,0.3,1.4,0.4,2.1,0.4
				h4.2c2.9,0,5.3-2.4,5.3-5.3l0,0c0-0.1,0-0.3,0-0.4l-1-12.4c0-0.1,0-0.2,0-0.3l-0.3-19.4h-1l-7.2,19.5
				C30.4-176,30.3-175.9,30.3-175.8L30.3-175.8z"/>
			<path id="Path_25-2_00000152973849867026110060000014088839585389638307_" class="st0" d="M210.6-207.4l-9.7,81.2
				c-0.6,4.6-4.5,8.2-9.2,8.1h-9.9c-5.1,0-9.2-4.1-9.2-9.3c0-0.5,0-1,0.1-1.4l3.5-22c0-0.2,0.1-0.4,0.1-0.6l8.2-36.2l-0.7,0.1
				l-25.1,50.7c-1.6,3.2-4.8,5.1-8.3,5.1h-14.3c-4.6,0-8.5-3.4-9.1-7.9l-7.1-48H119l-4.2,36.1c0,0.2-0.1,0.5-0.1,0.7l-5,25.2
				c-0.9,4.3-4.7,7.4-9.1,7.4h-9.5c-5.1,0-9.2-4.1-9.2-9.2c0-0.7,0.1-1.4,0.2-2.1l18.8-81.2c1-4.2,4.7-7.2,9-7.2h21.8
				c4.6,0,8.5,3.4,9.2,8l6.5,46.5l24.7-49.3c1.6-3.1,4.8-5.1,8.3-5.1h21.1c5.1,0,9.2,4.1,9.2,9.2c0,0,0,0,0,0
				C210.7-208.2,210.6-207.8,210.6-207.4z"/>
			<path id="Path_26-2_00000036942378203123881360000005194831063472509608_" class="st0" d="M343.6-207.4l-9.7,81.2
				c-0.6,4.6-4.5,8.2-9.2,8.1h-9.9c-5.1,0-9.2-4.1-9.2-9.2c0,0,0,0,0,0c0-0.5,0-1,0.1-1.4l3.5-22c0-0.2,0.1-0.4,0.1-0.6l8.2-36.2
				l-0.7,0.1l-25.1,50.7c-1.6,3.2-4.8,5.1-8.3,5.1h-14.3c-4.6,0-8.5-3.4-9.1-7.9l-7.1-48H252l-4.2,36.1c0,0.2-0.1,0.5-0.1,0.7
				l-5,25.2c-0.9,4.3-4.7,7.4-9.1,7.4H224c-5.1,0-9.2-4.1-9.3-9.2c0-0.7,0.1-1.4,0.2-2.1l18.8-81.2c1-4.2,4.7-7.2,9-7.2h21.8
				c4.6,0,8.5,3.4,9.2,8l6.5,46.5l24.7-49.3c1.6-3.1,4.8-5.1,8.3-5.1h21.1c5.1,0,9.2,4.1,9.3,9.2l0,0
				C343.6-208.2,343.6-207.8,343.6-207.4z"/>
			<path id="Path_27-2_00000177449632364715078130000013211368424915729048_" class="st0" d="M406.4-123l-0.7-8
				c-0.2-2.7-2.5-4.9-5.3-4.9h-20.3c-2.1,0-4,1.2-4.8,3.2l-4.9,11.4c-0.8,1.9-2.7,3.2-4.8,3.2h-19.8c-2.9,0-5.3-2.4-5.3-5.3
				c0-0.8,0.2-1.6,0.5-2.3l42.6-89.1c0.9-1.8,2.7-3,4.8-3h32c2.6,0,4.9,2,5.2,4.6l12.1,89.1c0.4,2.9-1.6,5.5-4.5,5.9c0,0,0,0,0,0
				c-0.2,0-0.5,0-0.7,0h-20.8C409-118.1,406.7-120.2,406.4-123z M393.6-175.8l-4.7,10.8c-1.2,2.7,0,5.8,2.7,7
				c0.7,0.3,1.4,0.4,2.1,0.4h4.2c2.9,0,5.3-2.4,5.3-5.3l0,0c0-0.1,0-0.3,0-0.4l-1-12.4c0-0.1,0-0.2,0-0.3l-0.3-19.4h-1l-7.2,19.5
				C393.6-176,393.6-175.9,393.6-175.8L393.6-175.8z"/>
		</g>
	</g>
	<g class="st1">
		<path class="st2" d="M554.8,89.1c11.9,1.5,20.6,2.3,26.1,2.3c8.2,0,14.6-0.9,19.2-2.6c4.6-1.7,7.4-5.1,8.3-10
			c0.8-3.9,0.1-7.3-2-10.2c-2.1-3-5.8-6.1-11.3-9.4l-15.8-9.6l-3.2-1.9c-0.7-0.4-1.7-1.1-3-2c-1.3-0.9-2.2-1.6-2.9-2.2
			c-0.7-0.6-1.5-1.3-2.5-2.3c-1-1-1.7-1.9-2.2-2.7c-0.5-0.8-1-1.8-1.6-3c-0.6-1.2-0.9-2.4-1.1-3.5c-0.2-1.2-0.3-2.5-0.3-4
			c0-1.5,0.1-3.1,0.4-4.7c1.4-8.4,5.2-14.1,11.5-17.2s15.2-4.6,26.9-4.6c8.2,0,17.2,0.8,27,2.5l-2.8,9.6
			c-10.1-1.4-17.9-2.1-23.4-2.1c-8.8,0-15.2,0.8-19.3,2.4c-4.1,1.6-6.6,4.8-7.6,9.7c-0.8,3.9,0,7,2.1,9.5s5.8,5.2,10.9,8.3l15.5,9.3
			c4.6,2.8,8.2,5.4,10.7,7.7c2.5,2.3,4.4,5.2,5.7,8.5c1.3,3.4,1.5,7.2,0.8,11.6c-1.4,8.1-5.5,13.9-12.3,17.4
			c-6.8,3.5-16.3,5.3-28.7,5.3c-8.6,0-18-0.9-28.2-2.7L554.8,89.1z"/>
		<path class="st2" d="M683.7,31.4c2.1-5.4,4.5-9.3,7.2-11.7c2.7-2.4,6.4-3.6,11-3.6c7.9,0,12.1,5.3,12.6,15.8l1.8,52
			c0.2,4.7,1.2,7.1,3.1,7.1c1.3,0,2.4-0.7,3.3-2c0.9-1.3,1.8-3.3,2.8-6.1l28.1-80.1h12.6l-30.2,81.9c-2.3,6.1-4.6,10.4-7.1,12.9
			c-2.5,2.4-6.2,3.7-11.1,3.7c-3.7,0-6.6-1.3-8.9-3.8c-2.3-2.5-3.4-6.3-3.5-11.2l-1.7-52.3c-0.1-4.9-1.3-7.3-3.5-7.3
			c-1.2,0-2.3,0.5-3.1,1.6c-0.8,1.1-1.8,3-2.8,5.7l-20.1,52.1c-4,10.1-9.8,15.1-17.7,15.1c-4,0-7.1-1.2-9.3-3.6
			c-2.1-2.4-3.2-6.9-3.3-13.6l-1.6-81.2h12.3L655,84c0,4.7,0.9,7.1,2.8,7.1c1.2,0,2.2-0.6,3-1.7c0.8-1.1,1.6-2.9,2.5-5.4L683.7,31.4
			z"/>
		<path class="st2" d="M799.8,12.6c-4.5,0-7.1,2.1-7.8,6.2l-4.7,26.7H830l-1.7,9.5h-42.7l-5.1,29.2c-0.7,4,1.2,6.1,5.5,6.1h42.1
			l-1.7,9.6H780c-4,0-7.2-1.2-9.3-3.6s-2.9-5.5-2.3-9.4L780,18.4C781.8,8.2,787.5,3,797.1,3h46.5l-1.7,9.6H799.8z"/>
		<path class="st2" d="M878.9,12.6c-4.5,0-7.1,2.1-7.8,6.2l-4.7,26.7h42.7l-1.7,9.5h-42.7l-5.1,29.2c-0.7,4,1.2,6.1,5.5,6.1h42.1
			l-1.7,9.6h-46.5c-4,0-7.2-1.2-9.3-3.6c-2.2-2.4-2.9-5.5-2.3-9.4l11.6-68.5C860.9,8.2,866.6,3,876.2,3h46.5l-1.7,9.6H878.9z"/>
		<path class="st2" d="M976.3,3c18.5,0,27.7,7.4,27.7,22.3c0,13.1-3.6,22.9-10.9,29.5c-7.3,6.6-17.4,9.9-30.5,9.9
			c-4.3,0-11.5-0.4-21.5-1.3l-6.4,36.4h-11.6l14.5-82.6C939.5,7.8,945,3,954.4,3H976.3z M956.1,12.5c-4,0-6.3,1.9-6.9,5.7l-6.4,36.2
			c8.3,0.8,15.2,1.1,20.8,1.1c19.1,0,28.7-9.5,28.7-28.5c0-9.6-6-14.4-18.1-14.4H956.1z"/>
	</g>
	<path id="Path_33_00000080903775615775065880000007150539960216713639_" class="st0" d="M1026.9,45.7c-3.5,3.3-3.7,8.9-0.3,12.4
		c0.1,0.1,0.2,0.2,0.3,0.3l46.9,41.8c4.3,4,10.7,0,10.7-6.2V10.4c0-6.6-6.1-10.2-10.7-6.2L1026.9,45.7z"/>
</g>
</svg>
