<svg width="40" height="40" viewBox="0 0 40 40" fill="none" xmlns="http://www.w3.org/2000/svg">
<path d="M18.2812 12H20H21.7188C22.2773 12 22.75 12.4583 22.75 13C22.75 13.5833 22.2773 14 21.7188 14H21.0312V15.4167C25.8438 15.9167 29.625 19.875 29.625 24.6667H10.375C10.375 19.875 14.1133 15.9167 18.9688 15.4167V14H18.2812C17.6797 14 17.25 13.5833 17.25 13C17.25 12.4583 17.6797 12 18.2812 12ZM10.0312 26H29.9688C30.5273 26 31 26.4583 31 27C31 27.5833 30.5273 28 29.9688 28H10.0312C9.42969 28 9 27.5833 9 27C9 26.4583 9.42969 26 10.0312 26Z" fill="#8F9AAB"/>
</svg>
