<svg fill="none" height="40" viewBox="0 0 40 40" width="40" xmlns="http://www.w3.org/2000/svg"><path d="m20.574 18.2722c.1611-.2576.1209-.601-.0805-.8585-.2417-.2576-.6848-.2576-.9265 0l-7.6133 8.1561v-2.4039c0-2.8761 1.0876-5.7093 3.0211-7.7698l4.1491-4.4215c1.1681-1.24484 2.7794-1.9746 4.431-1.9746 1.6515 0 3.2225.72976 4.3907 1.9746l.2014.2147c1.1682 1.2448 1.853 2.919 1.853 4.679 0 1.0732-.2417 2.0605-.6848 2.9619-.0806.1718-.2014.3005-.3625.3435l-4.5116 1.4165c-.1611.0859-.282.2147-.282.3864 0 .2146.1611.3863.4028.3863h1.2891c.5639 0 .8459.7727.4431 1.202l-.8862.9444c-.0806.0858-.2015.1287-.282.1717l-3.2629 1.0302c-.1611.0859-.2819.2147-.2819.3864 0 .2146.2014.3863.4028.3863.5237 0 .7653.6868.282.9873-1.6516 1.159-3.5851 1.76-5.5992 1.76h-2.7392l-2.2961 2.4468c-.3625.4293-.9667.4293-1.3293 0-.4028-.3863-.4028-1.0302 0-1.4595z" fill="#fe0f83"/></svg>