<svg width="40" height="40" viewBox="0 0 40 40" fill="none" xmlns="http://www.w3.org/2000/svg">
<path d="M12.5 30C11.6562 30 11 29.375 11 28.5714C11 27.8125 11.6562 27.1429 12.5 27.1429H27.5C28.2969 27.1429 29 27.8125 29 28.5714C29 29.375 28.2969 30 27.5 30H12.5ZM21.0312 23.8839C20.4688 24.4643 19.4844 24.4643 18.9219 23.8839L12.9219 18.1696C12.3125 17.6339 12.3125 16.6964 12.9219 16.1607C13.4844 15.5804 14.4688 15.5804 15.0312 16.1607L18.5 19.4196V11.4286C18.5 10.6696 19.1562 10 20 10C20.7969 10 21.5 10.6696 21.5 11.4286V19.4196L24.9219 16.1607C25.4844 15.5804 26.4688 15.5804 27.0312 16.1607C27.6406 16.6964 27.6406 17.6339 27.0312 18.1696L21.0312 23.8839Z" fill="#8F9AAB"/>
</svg>
